<?xml version="1.0" standalone="no"?>
<!DOCTYPE svg PUBLIC "-//W3C//DTD SVG 20010904//EN"
 "http://www.w3.org/TR/2001/REC-SVG-20010904/DTD/svg10.dtd">
<svg version="1.0" xmlns="http://www.w3.org/2000/svg"
 width="500.000000pt" height="500.000000pt" viewBox="0 0 500.000000 500.000000"
 preserveAspectRatio="xMidYMid meet">
<metadata>
Created by potrace 1.14, written by Peter Selinger 2001-2017
</metadata>
<g transform="translate(0.000000,500.000000) scale(0.100000,-0.100000)"
fill="#000000" stroke="none">
<path d="M2503 4630 l-19 -45 -69 0 -69 0 -32 -77 c-18 -43 -30 -78 -27 -78 3
0 0 -7 -7 -15 -7 -8 -9 -15 -4 -15 5 0 3 -4 -4 -9 -7 -4 -14 -18 -15 -29 -1
-12 -4 -22 -8 -22 -7 0 -22 -53 -19 -66 1 -4 -3 -10 -8 -13 -6 -3 -12 -15 -14
-26 -1 -11 -7 -23 -12 -27 -5 -3 -10 -14 -11 -25 -1 -10 -9 -33 -18 -50 -10
-18 -16 -33 -13 -33 2 0 -11 -36 -29 -79 -19 -44 -31 -82 -28 -85 4 -3 1 -6
-6 -6 -7 0 -11 -6 -8 -14 3 -8 2 -16 -3 -18 -4 -2 -10 -12 -12 -23 -1 -11 -6
-22 -10 -25 -4 -3 -9 -15 -11 -25 -2 -11 -14 -42 -25 -68 -12 -27 -22 -53 -22
-58 0 -5 -4 -17 -9 -27 -15 -28 -92 -223 -96 -242 -1 -3 -6 -16 -12 -30 -23
-52 -38 -95 -35 -102 1 -5 -3 -8 -8 -8 -5 0 -9 -3 -8 -7 2 -5 -7 -33 -19 -63
-36 -90 -46 -114 -49 -125 -1 -5 -20 -54 -42 -107 -23 -54 -38 -98 -35 -98 3
0 0 -7 -7 -15 -7 -8 -9 -15 -4 -15 5 0 3 -4 -3 -8 -7 -4 -14 -17 -16 -29 -1
-12 -9 -28 -16 -37 -7 -9 -10 -16 -6 -16 4 0 3 -6 -3 -12 -6 -7 -11 -17 -12
-23 -3 -12 -12 -37 -33 -87 -8 -20 -13 -39 -9 -42 3 -3 0 -6 -7 -6 -7 0 -11
-6 -8 -14 6 -14 -25 -54 -119 -156 -23 -25 -55 -61 -70 -80 -16 -19 -35 -41
-42 -48 -7 -8 -24 -29 -38 -47 -19 -25 -40 -38 -82 -50 -71 -21 -187 -73 -179
-81 3 -3 47 11 97 31 50 20 94 34 98 31 3 -3 -8 -23 -25 -44 -28 -35 -90 -122
-107 -149 -4 -7 -3 -13 3 -13 5 0 34 35 64 78 96 136 113 151 192 172 39 10
71 15 73 11 1 -4 -4 -20 -12 -36 -8 -16 -13 -32 -10 -37 3 -4 1 -8 -3 -8 -11
0 -34 -60 -27 -71 3 -5 0 -9 -6 -9 -6 0 -9 -4 -5 -9 3 -5 1 -12 -5 -16 -6 -4
-8 -11 -5 -16 4 -5 1 -9 -4 -9 -6 0 -11 -6 -11 -13 0 -8 -7 -28 -16 -45 -8
-17 -16 -41 -17 -52 -1 -11 -5 -20 -9 -20 -4 0 -8 -4 -8 -9 0 -5 -10 -31 -22
-58 -11 -26 -22 -54 -24 -62 -1 -8 -7 -17 -12 -20 -10 -7 -26 -43 -24 -53 1
-5 -3 -8 -9 -8 -5 0 -15 -13 -20 -30 -6 -16 -15 -30 -20 -30 -5 0 -9 -4 -9
-10 0 -18 -105 -130 -122 -130 -5 0 -6 -6 -2 -12 4 -7 4 -10 -1 -6 -4 4 -26
-3 -49 -16 -22 -12 -46 -21 -53 -19 -13 5 -20 -28 -15 -68 4 -24 5 -25 55 -19
46 6 777 6 802 0 6 -1 20 -2 33 -1 22 1 23 4 18 52 l-6 50 88 -3 88 -3 -6 39
c-5 37 -6 38 -50 41 -116 8 -268 57 -262 84 1 7 -2 10 -6 7 -12 -7 -44 28 -35
37 3 4 2 7 -4 7 -24 0 -47 94 -48 190 0 58 14 159 25 180 4 8 8 20 8 25 1 23
14 79 24 104 6 14 12 28 12 31 10 44 31 102 41 110 10 9 47 18 147 35 27 5 27
5 14 -26 -17 -41 -10 -69 18 -69 11 0 45 9 74 20 73 28 66 7 -18 -57 -61 -47
-93 -93 -76 -110 14 -14 80 32 112 77 18 25 43 56 56 69 24 24 240 153 246
146 2 -2 -21 -59 -51 -127 -55 -125 -161 -400 -173 -450 -4 -18 -2 -28 5 -28
6 0 13 12 17 28 25 112 277 719 313 755 6 6 57 11 115 11 l105 2 -36 -49 c-47
-63 -36 -72 13 -10 21 26 38 49 39 50 0 0 15 3 33 6 19 3 31 3 29 0 -3 -3 -1
-16 4 -30 8 -21 3 -37 -32 -97 -92 -155 -116 -221 -97 -258 19 -38 97 -8 178
69 41 38 50 41 50 13 0 -11 5 -20 11 -20 5 0 8 -4 5 -8 -3 -5 1 -20 9 -35 8
-15 12 -27 9 -27 -3 0 1 -10 8 -22 6 -13 13 -32 15 -43 2 -10 7 -22 11 -25 4
-3 8 -13 10 -24 2 -10 8 -30 14 -45 6 -14 12 -29 13 -33 2 -5 4 -11 5 -15 1
-5 2 -11 1 -15 0 -5 4 -8 10 -8 5 0 8 -4 4 -10 -3 -5 -1 -17 4 -27 16 -30 36
-88 33 -95 -1 -5 3 -8 9 -8 5 0 7 -4 4 -10 -3 -5 -1 -10 5 -10 6 0 8 -5 5 -10
-4 -6 -1 -18 6 -26 6 -8 9 -17 6 -20 -3 -3 1 -20 8 -37 7 -18 13 -60 13 -94 0
-51 -3 -63 -18 -68 -16 -5 -74 -13 -107 -14 -8 -1 -13 -15 -13 -36 0 -29 -4
-35 -22 -37 -27 -2 -50 -5 -60 -8 -7 -2 -24 -4 -84 -9 -12 -1 -14 -11 -12 -43
2 -32 7 -42 18 -39 24 6 1175 7 1268 1 46 -3 88 -3 93 0 5 3 7 27 4 54 l-4 47
67 -1 c104 -2 100 -4 104 38 3 33 1 38 -14 34 -23 -6 -110 37 -101 50 3 6 1 8
-4 5 -12 -7 -67 32 -59 41 3 3 -3 12 -14 19 -11 8 -18 19 -15 24 4 5 1 9 -5 9
-12 0 -95 169 -102 205 -1 11 -5 22 -8 25 -12 11 -59 144 -54 151 3 5 0 9 -6
9 -7 0 -10 7 -6 15 3 8 1 15 -3 15 -11 0 -31 56 -24 64 4 3 2 6 -4 6 -5 0 -16
19 -23 43 -8 23 -27 74 -43 112 -16 39 -30 75 -31 80 -2 6 -8 21 -13 35 -6 14
-20 49 -32 78 l-21 52 127 125 c70 68 124 128 120 132 -4 4 -54 -39 -110 -94
-147 -147 -137 -139 -148 -122 -8 13 -10 21 -8 35 0 4 -3 10 -8 13 -5 3 -17
28 -27 54 -20 54 -27 41 69 152 102 119 231 297 363 500 7 11 33 61 58 112 34
68 45 99 40 118 -19 76 -127 -18 -278 -245 -99 -148 -221 -363 -260 -457 -12
-29 -27 -53 -33 -53 -9 0 -57 116 -68 165 -1 6 -5 12 -8 15 -6 6 -76 187 -81
210 -2 8 -6 17 -10 20 -4 3 -9 17 -10 30 -2 14 -5 27 -8 30 -13 12 -59 133
-54 141 3 5 1 9 -4 9 -9 0 -35 68 -32 84 1 5 -2 12 -7 15 -8 6 -41 85 -47 114
-2 6 -13 32 -24 57 -12 25 -22 51 -22 58 0 7 -4 20 -9 30 -24 45 -39 87 -35
94 3 4 1 8 -4 8 -7 0 -15 20 -37 90 -1 3 -10 23 -20 45 -9 22 -18 45 -19 50
-2 6 -10 28 -20 50 -10 22 -18 48 -19 58 -1 9 -4 17 -8 17 -3 0 -12 19 -19 43
-8 23 -22 61 -33 85 -10 23 -15 47 -11 54 4 6 3 8 -4 4 -9 -6 -29 47 -24 67 1
4 -3 7 -8 7 -5 0 -9 3 -8 8 1 4 -8 29 -20 55 -12 27 -22 53 -22 57 0 5 -7 24
-16 42 l-15 33 -149 0 -148 0 -19 -45z m-228 -1012 c21 -57 86 -234 145 -395
l107 -292 -46 -90 -46 -91 -287 0 c-325 0 -300 -8 -259 85 11 25 18 45 15 45
-3 0 1 10 8 23 7 12 13 25 14 30 1 4 2 8 4 10 1 1 3 11 5 21 2 10 7 22 12 25
4 3 9 15 11 26 2 11 12 39 22 61 11 23 22 54 26 68 3 14 11 26 16 26 6 0 8 6
5 14 -3 8 -3 17 1 21 4 4 7 10 7 13 1 4 6 17 13 28 6 12 8 24 5 28 -3 3 -1 6
5 6 7 0 11 3 10 8 -3 13 25 92 33 92 5 0 6 7 3 15 -4 8 -1 15 5 15 6 0 10 3
10 8 -1 4 -1 9 1 12 1 3 3 15 6 28 2 12 11 33 19 46 8 12 12 26 8 29 -3 4 -1
7 6 7 7 0 9 5 6 10 -3 6 -1 10 5 10 6 0 9 4 6 9 -6 9 34 112 48 122 5 4 5 12
2 18 -4 6 -3 11 2 11 6 0 27 -46 47 -102z m1825 -53 c0 -32 -50 -129 -138
-265 -66 -103 -196 -287 -211 -300 -4 -3 -19 -23 -35 -45 -55 -75 -150 -177
-154 -166 -4 12 3 28 67 161 75 155 238 422 316 519 63 77 130 135 147 125 4
-3 8 -16 8 -29z m-1531 -739 c26 -70 22 -76 -56 -76 l-52 0 12 28 c35 75 62
121 67 115 4 -5 17 -35 29 -67z m-549 -256 c8 0 86 1 173 3 86 1 157 1 157 -1
0 -9 -66 -138 -75 -148 -6 -6 -26 -19 -43 -28 -18 -9 -73 -41 -123 -71 -78
-47 -93 -53 -105 -41 -15 15 -45 11 -79 -10 -11 -7 -31 -14 -45 -16 -22 -3
-25 0 -22 26 3 31 63 101 93 109 23 6 27 -8 14 -48 -7 -20 -6 -20 9 -1 9 11
16 30 16 43 0 31 -33 30 -80 -2 -20 -14 -61 -29 -90 -35 -124 -22 -120 -22
-120 -1 0 11 6 26 13 33 6 7 13 24 15 38 1 13 6 27 10 30 4 3 9 14 10 25 2 11
12 38 21 60 l18 41 109 -3 c60 -2 116 -3 124 -3z m680 -100 c0 -5 5 -21 12
-37 6 -15 11 -31 10 -35 -1 -5 3 -8 9 -8 6 0 9 -7 6 -15 -4 -8 -2 -17 3 -20 6
-4 10 -17 10 -30 0 -33 -129 -135 -171 -135 -33 0 -36 15 -18 71 17 50 122
229 131 223 4 -3 8 -9 8 -14z m-1184 -17 c-4 -10 -7 -20 -7 -23 -1 -3 -5 -11
-11 -17 -6 -7 -7 -13 -2 -13 5 0 3 -4 -3 -8 -7 -4 -15 -19 -17 -32 -2 -14 -5
-27 -6 -30 -2 -3 -2 -8 -1 -12 0 -5 -3 -8 -9 -8 -5 0 -10 -7 -10 -15 0 -16
-16 -24 -92 -48 -27 -8 -48 -11 -48 -7 0 19 199 244 208 236 2 -3 1 -13 -2
-23z"/>
<path d="M1933 1121 c-55 -34 -64 -123 -15 -161 26 -21 86 -27 112 -10 9 6 17
5 22 -3 4 -7 7 6 7 28 0 33 -2 36 -9 18 -19 -48 -91 -55 -106 -10 -21 63 -3
130 37 140 15 4 30 -2 50 -23 l29 -28 -1 31 c0 18 -3 26 -6 19 -4 -10 -8 -10
-19 -1 -24 19 -68 19 -101 0z"/>
<path d="M2210 1132 l-35 -3 3 -86 c3 -63 0 -88 -10 -94 -8 -5 6 -8 37 -8 28
0 44 3 38 6 -7 2 -13 20 -13 39 0 26 4 34 18 34 13 0 21 -11 28 -37 7 -32 14
-39 38 -41 16 -2 34 2 40 8 8 8 7 10 -6 5 -12 -5 -18 1 -23 24 -4 17 -14 35
-23 40 -15 9 -15 12 6 26 12 9 22 27 22 40 0 37 -44 54 -120 47z m72 -34 c3
-7 2 -23 0 -35 -3 -17 -11 -23 -31 -23 -23 0 -26 4 -24 32 1 18 2 34 2 36 3 8
50 0 53 -10z"/>
<path d="M1228 1118 c13 -17 13 -149 0 -165 -8 -10 3 -13 50 -13 33 0 72 4 85
9 45 17 45 65 -1 82 l-25 10 21 15 c27 19 28 50 3 64 -11 5 -48 10 -82 10 -48
0 -59 -3 -51 -12z m100 -32 c4 -31 -15 -51 -34 -35 -8 7 -12 46 -5 67 1 2 9 2
19 0 10 -2 18 -14 20 -32z m4 -55 c13 -2 19 -41 8 -61 -10 -19 -49 -29 -51
-12 -9 83 -9 82 14 78 12 -3 25 -5 29 -5z"/>
<path d="M1508 1041 c3 -79 1 -90 -15 -94 -10 -3 4 -5 31 -6 39 -1 46 2 38 12
-14 16 -11 69 3 79 7 5 6 8 -1 8 -12 0 -13 58 -1 78 6 9 -1 12 -25 12 l-33 0
3 -89z"/>
<path d="M1613 1119 c9 -5 17 -17 17 -25 0 -8 4 -13 9 -10 17 11 -1 46 -23 46
-19 -1 -19 -2 -3 -11z"/>
<path d="M2445 1122 c17 -12 13 -161 -5 -172 -10 -7 13 -10 71 -10 l86 0 1 33
1 32 -17 -28 c-14 -22 -23 -27 -47 -24 l-30 3 -2 77 c-2 46 1 77 7 77 6 0 10
5 10 10 0 6 -19 10 -42 10 -24 0 -38 -4 -33 -8z"/>
<path d="M2530 1119 c0 -6 8 -8 18 -5 13 5 22 -1 30 -16 10 -23 11 -23 11 5 1
24 -3 27 -29 27 -16 0 -30 -5 -30 -11z"/>
<path d="M2763 1110 c-3 -11 -9 -20 -14 -20 -5 0 -9 -7 -9 -15 0 -8 -13 -42
-29 -75 l-29 -60 31 0 c26 1 29 3 15 10 -30 18 -7 69 29 65 40 -4 71 -56 41
-68 -7 -3 7 -6 32 -6 l46 -1 -45 95 c-25 52 -49 95 -54 95 -5 0 -11 -9 -14
-20z"/>
<path d="M2953 1103 c0 -26 0 -26 16 -6 9 11 23 23 31 26 8 3 1 6 -16 6 -28 1
-31 -2 -31 -26z"/>
<path d="M3020 1041 c0 -77 -2 -90 -17 -94 -10 -3 9 -5 42 -5 33 0 52 2 42 5
-16 4 -18 15 -15 94 l3 89 -27 0 -28 0 0 -89z"/>
<path d="M3103 1118 c9 -7 20 -24 25 -38 9 -23 10 -22 10 13 0 33 -3 37 -26
37 -23 0 -24 -1 -9 -12z"/>
<path d="M3248 1044 c3 -64 0 -89 -10 -95 -8 -5 6 -9 37 -9 28 0 45 4 38 8
-19 12 -21 161 -2 173 10 6 2 9 -26 9 l-40 0 3 -86z"/>
<path d="M3448 1035 c25 -52 49 -95 52 -95 10 0 43 81 36 87 -3 4 -6 -1 -6
-10 0 -33 -18 -16 -42 41 -18 40 -22 59 -14 64 6 4 -8 8 -31 8 l-42 0 47 -95z"/>
<path d="M3546 1122 c6 -4 13 -13 15 -20 3 -9 9 -6 21 8 17 19 17 20 -15 20
-17 0 -27 -4 -21 -8z"/>
<path d="M3686 1119 c14 -24 12 -150 -3 -165 -13 -12 -8 -14 34 -14 26 0 43 4
38 8 -6 4 -12 24 -14 45 -2 31 0 37 18 37 11 0 24 -8 29 -17 7 -12 10 -8 9 20
-1 33 -3 35 -17 22 -30 -27 -41 -18 -36 30 l4 45 -35 0 c-23 0 -32 -4 -27 -11z"/>
<path d="M3791 1123 c9 -2 21 -14 27 -26 10 -21 11 -21 11 6 1 23 -3 27 -26
26 -16 -1 -21 -3 -12 -6z"/>
<path d="M1591 1052 c-6 -12 -5 -23 5 -37 13 -17 14 -16 14 18 0 41 -5 46 -19
19z"/>
<path d="M2538 1053 c-13 -16 -13 -20 3 -35 17 -16 18 -15 16 18 -1 19 -2 34
-3 34 0 0 -8 -8 -16 -17z"/>
<path d="M1632 976 c-6 -14 -21 -26 -34 -29 -15 -3 -10 -5 15 -6 35 -1 37 1
37 29 0 36 -3 37 -18 6z"/>
<path d="M3822 976 c-6 -14 -21 -26 -34 -29 -15 -3 -11 -5 14 -6 35 -1 37 1
36 29 -1 36 -2 36 -16 6z"/>
</g>
</svg>
